<svg width="43" height="43" viewBox="0 0 43 43" fill="none" xmlns="http://www.w3.org/2000/svg">
<circle cx="21.5" cy="21.5" r="21" stroke="#C4C4C4"/>
<path d="M22.2762 20.401L21.9136 23.5424L24.0885 21.2468L30.8553 6.74819C30.8553 6.74819 30.1333 6.963 29.7377 6.77835C29.342 6.59369 29.043 5.90234 29.043 5.90234L22.2762 20.401Z" stroke="#C4C4C4" stroke-width="0.5"/>
<ellipse cx="30.1595" cy="5.8721" rx="1" ry="0.5" transform="rotate(25.0192 30.1595 5.8721)" fill="#C4C4C4"/>
<path d="M22.1688 23.0543L22.11 22.186L22.8596 22.5249L22.1688 23.0543Z" fill="#C4C4C4"/>
<path d="M27.4987 9.49826C27.4987 9.49826 11.9987 7.49826 10.4987 9.49826C8.9987 11.4983 10.4987 32.4983 10.4987 32.4983C10.4987 32.4983 30.9974 34.4965 33.4987 32.4983C36 30.5 33.4987 9.49826 33.4987 9.49826H29.4987" stroke="#C4C4C4" stroke-width="0.8"/>
</svg>
