<svg width="43" height="43" viewBox="0 0 43 43" fill="none" xmlns="http://www.w3.org/2000/svg">
<circle cx="21.5" cy="21.5" r="21" stroke="#C4C4C4"/>
<path d="M32.1468 34.1821C33.2574 34.0575 33.5585 34.8062 34.8526 33.2505C36.1467 31.6948 35.3327 31.5698 35.2948 30.4715C35.1598 26.5602 28.2242 23.3695 28.2242 23.3695C28.2242 23.3695 27.7682 24.5214 27.2995 25.1487C26.5743 26.1193 24.88 27.0906 24.88 27.0906C24.88 27.0906 28.2063 34.6242 32.1468 34.1821Z" fill="#C4C4C4" stroke="#C4C4C4" stroke-width="0.1"/>
<path d="M19.4764 8.54682C25.1348 8.54682 29.6964 12.9603 29.6964 18.3737C29.6964 23.7872 25.1348 28.2007 19.4764 28.2007C13.8179 28.2007 9.25636 23.7872 9.25636 18.3737C9.25636 12.9603 13.8179 8.54682 19.4764 8.54682Z" stroke="#C4C4C4" stroke-width="0.786154"/>
</svg>
